<svg width="152" height="18" viewBox="0 0 152 18" fill="none" xmlns="http://www.w3.org/2000/svg">
<path d="M0.552 14.668C0.472 14.668 0.404 14.644 0.348 14.596C0.3 14.548 0.276 14.48 0.276 14.392V12.196C0.276 12.116 0.3 12.052 0.348 12.004C0.404 11.948 0.472 11.92 0.552 11.92H0.804C0.996 11.92 1.164 11.832 1.308 11.656C1.452 11.48 1.572 11.212 1.668 10.852C1.772 10.484 1.848 10.02 1.896 9.46C1.944 8.9 1.968 8.236 1.968 7.468V4.876C1.968 4.796 1.992 4.732 2.04 4.684C2.096 4.628 2.164 4.6 2.244 4.6H6.924C7.012 4.6 7.08 4.628 7.128 4.684C7.184 4.732 7.212 4.8 7.212 4.888V11.92H7.8C7.888 11.92 7.956 11.948 8.004 12.004C8.06 12.052 8.088 12.116 8.088 12.196V14.392C8.088 14.472 8.06 14.536 8.004 14.584C7.956 14.64 7.888 14.668 7.8 14.668H7.188C7.1 14.668 7.032 14.64 6.984 14.584C6.936 14.536 6.912 14.472 6.912 14.392V13H1.452V14.392C1.452 14.472 1.424 14.536 1.368 14.584C1.32 14.64 1.252 14.668 1.164 14.668H0.552ZM2.34 11.92H6.036V5.68H3.12V7.612C3.12 8.748 3.052 9.664 2.916 10.36C2.788 11.056 2.596 11.576 2.34 11.92ZM9.64809 13C9.57609 13 9.51209 12.976 9.45609 12.928C9.40809 12.872 9.38409 12.812 9.38409 12.748V7.036C9.38409 6.956 9.40809 6.892 9.45609 6.844C9.51209 6.788 9.58009 6.76 9.66009 6.76H10.2361C10.3161 6.76 10.3801 6.788 10.4281 6.844C10.4761 6.892 10.5001 6.956 10.5001 7.036V12.124L10.1881 11.8L13.8241 6.94C13.8641 6.892 13.9081 6.852 13.9561 6.82C14.0041 6.78 14.0641 6.76 14.1361 6.76H14.6881C14.7521 6.76 14.8081 6.784 14.8561 6.832C14.9121 6.88 14.9401 6.936 14.9401 7V12.724C14.9401 12.804 14.9121 12.872 14.8561 12.928C14.8081 12.976 14.7441 13 14.6641 13H14.1001C14.0121 13 13.9441 12.976 13.8961 12.928C13.8481 12.872 13.8241 12.804 13.8241 12.724V7.936L14.1601 7.924L10.5001 12.82C10.4681 12.86 10.4281 12.9 10.3801 12.94C10.3321 12.98 10.2681 13 10.1881 13H9.64809ZM18.8686 13.12C18.3966 13.12 17.9966 13.064 17.6686 12.952C17.3486 12.832 17.0886 12.684 16.8886 12.508C16.6966 12.324 16.5566 12.136 16.4686 11.944C16.3806 11.744 16.3326 11.56 16.3246 11.392C16.3246 11.32 16.3486 11.264 16.3966 11.224C16.4446 11.176 16.5006 11.152 16.5646 11.152H17.1286C17.2006 11.152 17.2606 11.172 17.3086 11.212C17.3566 11.244 17.3926 11.304 17.4166 11.392C17.5126 11.696 17.6966 11.908 17.9686 12.028C18.2406 12.148 18.5726 12.208 18.9646 12.208C19.2206 12.208 19.4566 12.176 19.6726 12.112C19.8886 12.04 20.0566 11.928 20.1766 11.776C20.3046 11.624 20.3686 11.436 20.3686 11.212C20.3686 10.884 20.2726 10.636 20.0806 10.468C19.8966 10.3 19.6086 10.216 19.2166 10.216H18.5566C18.4766 10.216 18.4126 10.192 18.3646 10.144C18.3166 10.096 18.2926 10.032 18.2926 9.952V9.628C18.2926 9.556 18.3166 9.496 18.3646 9.448C18.4126 9.392 18.4766 9.364 18.5566 9.364H19.1446C19.4726 9.364 19.7246 9.3 19.9006 9.172C20.0766 9.044 20.1646 8.84 20.1646 8.56C20.1646 8.392 20.1246 8.232 20.0446 8.08C19.9646 7.928 19.8286 7.804 19.6366 7.708C19.4526 7.604 19.1966 7.552 18.8686 7.552C18.4046 7.552 18.0766 7.632 17.8846 7.792C17.7006 7.944 17.5686 8.172 17.4886 8.476C17.4566 8.564 17.4166 8.624 17.3686 8.656C17.3286 8.688 17.2686 8.704 17.1886 8.704H16.6486C16.5766 8.704 16.5166 8.684 16.4686 8.644C16.4206 8.604 16.3966 8.548 16.3966 8.476C16.4046 8.236 16.4566 8.008 16.5526 7.792C16.6566 7.576 16.8086 7.38 17.0086 7.204C17.2166 7.028 17.4726 6.892 17.7766 6.796C18.0886 6.692 18.4526 6.64 18.8686 6.64C19.4686 6.64 19.9406 6.732 20.2846 6.916C20.6366 7.1 20.8846 7.328 21.0286 7.6C21.1806 7.864 21.2566 8.128 21.2566 8.392C21.2566 8.704 21.2046 8.964 21.1006 9.172C21.0046 9.38 20.8126 9.556 20.5246 9.7C20.8846 9.836 21.1326 10.04 21.2686 10.312C21.4046 10.584 21.4766 10.9 21.4846 11.26C21.4926 11.676 21.3806 12.02 21.1486 12.292C20.9246 12.564 20.6166 12.772 20.2246 12.916C19.8326 13.052 19.3806 13.12 18.8686 13.12ZM24.5772 13.12C24.1772 13.12 23.8132 13.04 23.4852 12.88C23.1572 12.72 22.8932 12.504 22.6932 12.232C22.4932 11.96 22.3932 11.652 22.3932 11.308C22.3932 10.756 22.6172 10.316 23.0652 9.988C23.5132 9.66 24.0972 9.444 24.8172 9.34L26.6052 9.088V8.74C26.6052 8.356 26.4932 8.056 26.2692 7.84C26.0532 7.624 25.6972 7.516 25.2012 7.516C24.8412 7.516 24.5492 7.588 24.3252 7.732C24.1092 7.876 23.9572 8.06 23.8692 8.284C23.8212 8.404 23.7372 8.464 23.6172 8.464H23.0772C22.9892 8.464 22.9212 8.44 22.8732 8.392C22.8332 8.336 22.8132 8.272 22.8132 8.2C22.8132 8.08 22.8572 7.932 22.9452 7.756C23.0412 7.58 23.1852 7.408 23.3772 7.24C23.5692 7.072 23.8132 6.932 24.1092 6.82C24.4132 6.7 24.7812 6.64 25.2132 6.64C25.6932 6.64 26.0972 6.704 26.4252 6.832C26.7532 6.952 27.0092 7.116 27.1932 7.324C27.3852 7.532 27.5212 7.768 27.6012 8.032C27.6892 8.296 27.7332 8.564 27.7332 8.836V12.724C27.7332 12.804 27.7052 12.872 27.6492 12.928C27.6012 12.976 27.5372 13 27.4572 13H26.9052C26.8172 13 26.7492 12.976 26.7012 12.928C26.6532 12.872 26.6292 12.804 26.6292 12.724V12.208C26.5252 12.352 26.3852 12.496 26.2092 12.64C26.0332 12.776 25.8132 12.892 25.5492 12.988C25.2852 13.076 24.9612 13.12 24.5772 13.12ZM24.8292 12.22C25.1572 12.22 25.4572 12.152 25.7292 12.016C26.0012 11.872 26.2132 11.652 26.3652 11.356C26.5252 11.06 26.6052 10.688 26.6052 10.24V9.904L25.2132 10.108C24.6452 10.188 24.2172 10.324 23.9292 10.516C23.6412 10.7 23.4972 10.936 23.4972 11.224C23.4972 11.448 23.5612 11.636 23.6892 11.788C23.8252 11.932 23.9932 12.04 24.1932 12.112C24.4012 12.184 24.6132 12.22 24.8292 12.22ZM29.7223 13C29.6503 13 29.5863 12.976 29.5303 12.928C29.4823 12.872 29.4583 12.812 29.4583 12.748V7.036C29.4583 6.956 29.4823 6.892 29.5303 6.844C29.5863 6.788 29.6543 6.76 29.7343 6.76H30.3103C30.3903 6.76 30.4543 6.788 30.5023 6.844C30.5503 6.892 30.5743 6.956 30.5743 7.036V12.124L30.2623 11.8L33.8983 6.94C33.9383 6.892 33.9823 6.852 34.0303 6.82C34.0783 6.78 34.1383 6.76 34.2103 6.76H34.7623C34.8263 6.76 34.8823 6.784 34.9303 6.832C34.9863 6.88 35.0143 6.936 35.0143 7V12.724C35.0143 12.804 34.9863 12.872 34.9303 12.928C34.8823 12.976 34.8183 13 34.7383 13H34.1743C34.0863 13 34.0183 12.976 33.9703 12.928C33.9223 12.872 33.8983 12.804 33.8983 12.724V7.936L34.2343 7.924L30.5743 12.82C30.5423 12.86 30.5023 12.9 30.4543 12.94C30.4063 12.98 30.3423 13 30.2623 13H29.7223ZM32.2663 5.932C31.8023 5.932 31.4383 5.86 31.1743 5.716C30.9103 5.572 30.7263 5.388 30.6223 5.164C30.5183 4.932 30.4663 4.692 30.4663 4.444C30.4663 4.38 30.4823 4.328 30.5143 4.288C30.5543 4.24 30.6143 4.216 30.6943 4.216H31.1023C31.1743 4.216 31.2303 4.24 31.2703 4.288C31.3103 4.328 31.3303 4.38 31.3303 4.444C31.3303 4.628 31.3903 4.8 31.5103 4.96C31.6383 5.112 31.8903 5.188 32.2663 5.188C32.6503 5.188 32.9023 5.112 33.0223 4.96C33.1423 4.8 33.2023 4.628 33.2023 4.444C33.2023 4.38 33.2223 4.328 33.2623 4.288C33.3023 4.24 33.3583 4.216 33.4303 4.216H33.8503C33.9223 4.216 33.9783 4.24 34.0183 4.288C34.0583 4.328 34.0783 4.38 34.0783 4.444C34.0783 4.692 34.0223 4.932 33.9103 5.164C33.8063 5.388 33.6223 5.572 33.3583 5.716C33.0943 5.86 32.7303 5.932 32.2663 5.932ZM37.0468 13C36.9668 13 36.8988 12.976 36.8428 12.928C36.7948 12.872 36.7708 12.804 36.7708 12.724V7.036C36.7708 6.956 36.7948 6.892 36.8428 6.844C36.8988 6.788 36.9668 6.76 37.0468 6.76H37.6228C37.7028 6.76 37.7668 6.788 37.8148 6.844C37.8628 6.892 37.8868 6.956 37.8868 7.036V9.34H41.1628V7.036C41.1628 6.956 41.1868 6.892 41.2348 6.844C41.2908 6.788 41.3588 6.76 41.4388 6.76H42.0028C42.0828 6.76 42.1468 6.788 42.1948 6.844C42.2508 6.892 42.2788 6.956 42.2788 7.036V12.724C42.2788 12.804 42.2508 12.872 42.1948 12.928C42.1468 12.976 42.0828 13 42.0028 13H41.4388C41.3588 13 41.2908 12.976 41.2348 12.928C41.1868 12.872 41.1628 12.804 41.1628 12.724V10.3H37.8868V12.724C37.8868 12.804 37.8628 12.872 37.8148 12.928C37.7668 12.976 37.7028 13 37.6228 13H37.0468Z" fill="#414141"/>
<g clip-path="url(#clip0_45_10622)">
<path fill-rule="evenodd" clip-rule="evenodd" d="M70.241 4.3697L62.3876 11.7798C62.1121 12.0397 62.3173 12.4694 62.7168 12.4694H70.4056C70.5311 12.4694 70.6328 12.378 70.6328 12.2653V4.5104C70.6328 4.32614 70.3824 4.23623 70.241 4.3697ZM60.2452 6.22024L52.3918 13.6303C52.2504 13.7638 52 13.6739 52 13.4896V5.73476C52 5.62205 52.1017 5.53068 52.2272 5.53068H59.916C60.3155 5.53068 60.5207 5.96035 60.2452 6.22024ZM101.816 6.41986C101.562 6.29094 101.259 6.17979 100.906 6.07754C100.295 5.90416 99.3812 5.73078 98.1491 5.73078C95.6003 5.73078 94.6166 6.6377 94.6166 7.74912C94.6166 8.78052 95.2625 9.57185 98.0199 9.83415C99.6694 9.99864 100.027 10.052 100.027 10.3721C100.027 10.7811 99.2967 10.8967 98 10.8967C97.2101 10.8967 96.5542 10.7855 96.0971 10.6655C95.8239 10.5988 95.5854 10.5188 95.3767 10.4343L94.393 11.7191C94.6265 11.8569 94.9197 11.9814 95.2724 12.0926C95.8736 12.2837 96.7977 12.4615 98.0994 12.4615C100.464 12.4615 102.149 11.9014 102.149 10.3721C102.149 9.1095 101.135 8.58046 98.4273 8.30928C97.1902 8.18924 96.7381 8.09144 96.7381 7.74912C96.7381 7.41125 97.2895 7.29566 98.2484 7.29566C99.0086 7.29566 99.6495 7.39791 100.107 7.50016C100.375 7.55796 100.618 7.62909 100.832 7.70466L101.816 6.41986ZM83.7316 6.83775L79.6774 10.7188H83.7316V12.2837H76.2543V11.3546L80.3034 7.47349H76.3536V5.90861H83.7316V6.83775ZM93.9387 12.2837H91.6831L91.0521 11.2523H87.2762L86.6452 12.2837H84.3896L88.2997 5.90861H90.0286L93.9387 12.2837ZM90.1777 9.82081L89.1642 8.16257L88.1506 9.82081H90.1777ZM112.654 9.09616C112.654 10.9589 111.114 12.4615 107.755 12.4615C104.396 12.4615 102.856 10.9589 102.856 9.09616C102.856 7.23342 104.396 5.73078 107.755 5.73078C111.114 5.73078 112.654 7.23342 112.654 9.09616ZM104.978 9.09616C104.978 10.0031 105.574 10.8967 107.755 10.8967C109.936 10.8967 110.532 10.0031 110.532 9.09616C110.532 8.18924 109.936 7.29566 107.755 7.29566C105.574 7.29566 104.978 8.18924 104.978 9.09616ZM114.966 5.90861H112.711L116.521 12.2837H118.25L122.061 5.90861H119.805L117.386 10.0298L114.966 5.90861ZM128.87 6.07754C129.223 6.17979 129.526 6.29094 129.779 6.41986L128.795 7.70466C128.582 7.62909 128.338 7.55796 128.07 7.50016C127.613 7.39791 126.972 7.29566 126.212 7.29566C125.253 7.29566 124.701 7.41125 124.701 7.74912C124.701 8.09144 125.153 8.18924 126.391 8.30928C129.098 8.58046 130.112 9.1095 130.112 10.3721C130.112 11.9014 128.428 12.4615 126.063 12.4615C124.761 12.4615 123.837 12.2837 123.236 12.0926C122.883 11.9814 122.59 11.8569 122.356 11.7191L123.34 10.4343C123.549 10.5188 123.787 10.5988 124.06 10.6655C124.518 10.7855 125.173 10.8967 125.963 10.8967C127.26 10.8967 127.99 10.7811 127.99 10.3721C127.99 10.052 127.633 9.99864 125.983 9.83415C123.226 9.57185 122.58 8.78052 122.58 7.74912C122.58 6.6377 123.564 5.73078 126.112 5.73078C127.345 5.73078 128.259 5.90416 128.87 6.07754ZM133.12 8.27816V5.90861H131.018V12.2837H133.12V10.3098L133.9 9.7319L136.553 12.2837H139.122L135.351 8.66049L139.072 5.90861H136.324L133.12 8.27816ZM141.981 12.2837H139.879V5.90861H141.981V12.2837ZM145.217 5.90861H142.738L146.315 9.75412V12.2837H148.422V9.75412L151.999 5.90861H149.52L147.368 8.22925L145.217 5.90861Z" fill="#414141"/>
</g>
<defs>
<clipPath id="clip0_45_10622">
<rect width="100" height="10" fill="white" transform="translate(52 4)"/>
</clipPath>
</defs>
</svg>
