<svg width="101" height="11" viewBox="0 0 101 11" fill="none" xmlns="http://www.w3.org/2000/svg">
<path d="M6.95251 7.21835C6.74735 7.36973 6.50247 7.48821 6.22451 7.58694C5.94655 7.68567 5.69505 7.73174 5.46342 7.73174C4.71556 7.73174 4.0736 7.47504 3.55076 6.96823C3.02792 6.45484 2.76981 5.82955 2.76981 5.09237C2.76981 4.34861 3.02792 3.72332 3.55076 3.20993C4.0736 2.68995 4.71556 2.43326 5.46342 2.43326C5.69505 2.43326 5.95316 2.48591 6.23775 2.58464C6.52233 2.68337 6.7672 2.81501 6.9856 2.97956C7.17091 3.1112 7.38269 3.09145 7.48197 2.95323L8.48793 1.48545C8.57397 1.3604 8.53426 1.16294 8.37542 1.05105C7.98495 0.768021 7.51506 0.537652 6.96575 0.359939C6.41644 0.175644 5.91345 0.0834961 5.46342 0.0834961C4.76189 0.0834961 4.09345 0.215135 3.46472 0.478414C2.83599 0.735111 2.29992 1.09054 1.84326 1.53811C1.39323 1.9791 1.03584 2.51224 0.771115 3.13095C0.506387 3.74965 0.374023 4.40127 0.374023 5.09237C0.374023 5.78348 0.506387 6.43509 0.771115 7.0538C1.03584 7.6725 1.39323 8.20564 1.84326 8.64663C2.29992 9.08763 2.83599 9.44305 3.46472 9.70633C4.09345 9.96303 4.76189 10.0947 5.46342 10.0947C5.92669 10.0947 6.42967 10.0091 6.97237 9.83139C7.52168 9.65368 7.97171 9.42989 8.3291 9.16003C8.49455 9.04813 8.56735 8.85068 8.48793 8.72562L7.50182 7.23809C7.39593 7.08671 7.15768 7.08013 6.95251 7.21835Z" fill="#414141"/>
<path d="M9.72554 9.54178C9.72554 9.75899 9.8579 9.88404 10.0763 9.88404H16.4298C16.6482 9.88404 16.7872 9.75241 16.7872 9.54178V8.12008C16.7872 7.85022 16.6018 7.6725 16.304 7.6725H12.1015V6.03359H15.2914C15.5297 6.03359 15.6753 5.90195 15.6753 5.68475V4.43418C15.6753 4.20381 15.5297 4.07217 15.2914 4.07217H12.1015V2.47933H16.304C16.5357 2.47933 16.6548 2.36086 16.6548 2.13049V0.616635C16.6548 0.39943 16.5224 0.267791 16.304 0.267791H10.0763C9.8579 0.267791 9.72554 0.39943 9.72554 0.616635V9.54178Z" fill="#414141"/>
<path d="M24.1731 4.7896C24.7224 4.42759 25.0665 3.74965 25.0665 3.04538C25.0665 2.16998 24.7819 1.48545 24.2194 0.998389C23.6568 0.511324 22.8693 0.267791 21.8501 0.267791H18.3755C18.2034 0.267791 18.1174 0.353357 18.1174 0.517906V9.63393C18.1174 9.79848 18.2034 9.88404 18.3755 9.88404H22.128C23.1936 9.88404 24.0208 9.62735 24.6099 9.12054C25.2055 8.61372 25.5033 7.90287 25.5033 6.98798C25.5033 6.5075 25.3842 6.0665 25.1459 5.665C24.9077 5.2635 24.5834 4.9739 24.1731 4.7896ZM21.8236 2.40693C22.3464 2.40693 22.6707 2.71628 22.6707 3.21651C22.6707 3.71674 22.3464 4.03268 21.8236 4.03268H20.5198V2.40693H21.8236ZM20.5198 7.7449V5.81639H22.0949C22.7104 5.81639 23.1009 6.1784 23.1009 6.76419C23.1009 7.36315 22.7104 7.7449 22.0949 7.7449H20.5198Z" fill="#414141"/>
<path d="M26.6946 9.54178C26.6946 9.75899 26.827 9.88404 27.0454 9.88404H33.3988C33.6172 9.88404 33.7562 9.75241 33.7562 9.54178V8.12008C33.7562 7.85022 33.5709 7.6725 33.2731 7.6725H29.0705V6.03359H32.2605C32.4988 6.03359 32.6444 5.90195 32.6444 5.68475V4.43418C32.6444 4.20381 32.4988 4.07217 32.2605 4.07217H29.0705V2.47933H33.2731C33.5047 2.47933 33.6238 2.36086 33.6238 2.13049V0.616635C33.6238 0.39943 33.4915 0.267791 33.2731 0.267791H27.0454C26.827 0.267791 26.6946 0.39943 26.6946 0.616635V9.54178Z" fill="#414141"/>
<path d="M37.1447 0.267791H36.2844H35.4306C35.2254 0.267791 35.0865 0.419176 35.0865 0.623217V9.54178C35.0865 9.75899 35.2122 9.89063 35.4306 9.89063H37.1249C37.3565 9.89063 37.4889 9.75899 37.4889 9.54178V6.92216H38.6471C39.6795 6.92216 40.5134 6.61939 41.1554 6.02043C41.7973 5.41489 42.1216 4.61189 42.1216 3.61143C42.1216 2.59781 41.7973 1.78823 41.1554 1.18268C40.5134 0.570562 39.6795 0.267791 38.6471 0.267791H37.1447ZM37.4889 4.75669V2.43326H38.5478C38.8853 2.43326 39.1699 2.54515 39.3883 2.76894C39.6133 2.98614 39.7258 3.26259 39.7258 3.59827C39.7258 3.93395 39.6133 4.21039 39.3883 4.42759C39.1699 4.6448 38.8853 4.75669 38.5478 4.75669H37.4889Z" fill="#414141"/>
<path d="M49.3884 0.267791H46.4301C45.3976 0.267791 44.5571 0.570562 43.9151 1.18268C43.2732 1.78823 42.9555 2.59781 42.9555 3.60485C42.9555 4.80935 43.5048 5.80323 44.4512 6.36269L42.757 9.48913C42.6511 9.68 42.7702 9.89063 42.982 9.89063H44.9608C45.1527 9.89063 45.2388 9.82481 45.3645 9.59444L46.7808 6.88267H47.7669V9.54178C47.7669 9.75899 47.8993 9.89063 48.1309 9.89063H49.8252C50.0436 9.89063 50.1693 9.75899 50.1693 9.54178V0.616635C50.1693 0.412594 50.0304 0.267791 49.8252 0.267791H49.3884ZM46.5293 4.82251C46.1918 4.82251 45.9072 4.70404 45.6822 4.46709C45.4638 4.22355 45.3513 3.93395 45.3513 3.59168C45.3513 3.24942 45.4638 2.97298 45.6822 2.75577C45.9006 2.53857 46.1852 2.42668 46.5293 2.42668H47.7669V4.82251H46.5293Z" fill="#414141"/>
<path d="M58.0384 0.267791C57.8729 0.267791 57.7869 0.353357 57.7869 0.524488V3.84838H54.1667V0.524488C54.1667 0.353357 54.0807 0.267791 53.9152 0.267791H52.0489C51.8768 0.267791 51.7908 0.353357 51.7908 0.524488V9.63393C51.7908 9.80506 51.8768 9.89063 52.0489 9.89063H53.9152C54.0807 9.89063 54.1667 9.80506 54.1667 9.63393V6.01385H57.7869V9.63393C57.7869 9.80506 57.8729 9.89063 58.0384 9.89063H59.9113C60.0768 9.89063 60.1628 9.80506 60.1628 9.63393V0.524488C60.1628 0.353357 60.0768 0.267791 59.9113 0.267791H58.0384Z" fill="#414141"/>
<path d="M61.3409 5.09895C61.3409 5.78348 61.4732 6.43509 61.7313 7.0538C61.9961 7.66592 62.3534 8.19906 62.7969 8.64005C63.2469 9.08104 63.783 9.43647 64.4051 9.69975C65.0272 9.95645 65.6824 10.0881 66.3773 10.0881C67.3038 10.0881 68.151 9.87088 68.9187 9.42989C69.693 8.9889 70.2953 8.38336 70.7387 7.61985C71.1821 6.85634 71.4071 6.01385 71.4071 5.09895C71.4071 4.40785 71.2748 3.75623 71.01 3.13753C70.7519 2.51224 70.3945 1.9791 69.9445 1.53811C69.5011 1.09712 68.965 0.741693 68.3429 0.484996C67.7274 0.221717 67.0722 0.0900781 66.3773 0.0900781C65.6824 0.0900781 65.0272 0.221717 64.4051 0.484996C63.783 0.741693 63.2469 1.09712 62.7969 1.53811C62.3534 1.9791 61.9961 2.51224 61.7313 3.13753C61.4732 3.75623 61.3409 4.40785 61.3409 5.09895ZM63.7366 5.09895C63.7366 4.36177 63.9948 3.74307 64.5043 3.23626C65.014 2.72945 65.6427 2.47275 66.3773 2.47275C67.1119 2.47275 67.734 2.72945 68.2436 3.23626C68.7532 3.74307 69.0113 4.36177 69.0113 5.09895C69.0113 5.82955 68.7532 6.44168 68.2436 6.94849C67.734 7.4553 67.1119 7.70541 66.3773 7.70541C65.6361 7.70541 65.0073 7.4553 64.4977 6.94849C63.9881 6.44168 63.7366 5.82955 63.7366 5.09895Z" fill="#414141"/>
<path d="M78.3033 0.261209C78.118 0.261209 77.9658 0.425758 77.9658 0.616635V3.32841C77.9658 3.82205 77.8069 4.21697 77.4959 4.51316C77.1848 4.80935 76.7745 4.96073 76.2516 4.96073C75.2126 4.96073 74.5971 4.34861 74.5971 3.31524V0.616635C74.5971 0.412594 74.4383 0.261209 74.2265 0.261209H72.5256C72.3469 0.261209 72.2013 0.425758 72.2013 0.616635V3.32182C72.2013 4.51974 72.5587 5.48071 73.2735 6.20472C73.9882 6.92216 74.9148 7.28417 76.0531 7.28417C76.7943 7.28417 77.4893 6.98798 77.9658 6.53382V9.54178C77.9658 9.73266 78.1114 9.88404 78.3033 9.88404H80.0174C80.2093 9.88404 80.3615 9.72608 80.3615 9.5352V0.616635C80.3615 0.412594 80.2226 0.261209 80.0373 0.261209H78.3033Z" fill="#414141"/>
<path d="M87.7144 4.80277L90.7918 0.721947C90.9507 0.511324 90.8845 0.287537 90.6396 0.287537H88.4622C88.2306 0.287537 88.1048 0.313865 87.9526 0.517906L85.4443 3.86813H84.3788V0.524488C84.3788 0.359939 84.2928 0.274373 84.1273 0.274373H82.2411C82.069 0.274373 81.983 0.359939 81.983 0.524488V9.62735C81.983 9.79848 82.069 9.88404 82.2411 9.88404H84.1273C84.2928 9.88404 84.3788 9.79848 84.3788 9.62735V6.11916H85.7421L88.1776 9.75241C88.2637 9.85113 88.3828 9.90379 88.5218 9.90379H90.719C90.9507 9.90379 91.0102 9.67342 90.8779 9.48254L87.7144 4.80277Z" fill="#414141"/>
<path d="M97.1916 0.583726C97.1188 0.392849 96.9401 0.261209 96.7548 0.261209H95.3584C95.1731 0.261209 94.9944 0.379685 94.9083 0.583726L91.3742 9.50229C91.2882 9.73266 91.3875 9.89063 91.6323 9.89063H93.5053C93.7105 9.89063 93.8825 9.75899 93.9355 9.57469L94.3657 8.31754H97.7211L98.1579 9.58127C98.2307 9.76557 98.3961 9.89721 98.5814 9.89721H100.461C100.719 9.89721 100.805 9.72608 100.719 9.50887L97.1916 0.583726ZM96.0401 3.41397L97.0394 6.32978H95.0407L96.0401 3.41397Z" fill="#414141"/>
</svg>
